<svg xmlns="http://www.w3.org/2000/svg" xmlns:xlink="http://www.w3.org/1999/xlink" version="1.1" width="256" height="256" viewBox="0 0 256 256" xml:space="preserve">

<defs>
</defs>
<g style="stroke: none; stroke-width: 0; stroke-dasharray: none; stroke-linecap: butt; stroke-linejoin: miter; stroke-miterlimit: 10; fill: none; fill-rule: nonzero; opacity: 1;" transform="translate(1.4065934065934016 1.4065934065934016) scale(2.81 2.81)" >
	<path d="M 45 0 C 28.967 0 14.902 8.392 6.932 21.015 c 2.729 1.97 6.069 3.145 9.693 3.145 h 32.399 c 17.08 0 32.123 8.704 40.948 21.915 C 89.981 45.716 90 45.36 90 45 C 90 20.147 69.853 0 45 0 z" style="stroke: none; stroke-width: 1; stroke-dasharray: none; stroke-linecap: butt; stroke-linejoin: miter; stroke-miterlimit: 10; fill: rgb(65,118,250); fill-rule: nonzero; opacity: 1;" transform=" matrix(1 0 0 1 0 0) " stroke-linecap="round" />
	<path d="M 90 45 c 0 -1.207 -0.062 -2.399 -0.155 -3.583 C 81.002 27.735 66.02 20.885 49.024 20.885 H 16.625 c -3.159 0 -6.101 -0.494 -8.614 -1.504 C 3.387 26.046 0.51 34.014 0.063 42.629 c 9.023 11.127 22.794 18.247 38.236 18.247 h 0.744 c 9.038 0 13.101 3.942 13.329 12.925 c 0.004 -0.143 0.022 -0.282 0.022 -0.426 c 0 8.417 -3.516 15.355 -11.172 16.456 C 42.469 89.934 43.726 90 45 90 C 69.853 90 90 69.853 90 45 z" style="stroke: none; stroke-width: 1; stroke-dasharray: none; stroke-linecap: butt; stroke-linejoin: miter; stroke-miterlimit: 10; fill: rgb(62,109,228); fill-rule: nonzero; opacity: 1;" transform=" matrix(1 0 0 1 0 0) " stroke-linecap="round" />
	<path d="M 41.27 89.834 c 7.988 -1.072 14.169 -7.802 14.378 -16.034 c -0.228 -8.983 -7.566 -16.2 -16.604 -16.2 h -0.744 c -15.296 0 -28.947 -6.992 -37.973 -17.938 C 0.119 41.414 0 43.193 0 45 C 0 68.595 18.164 87.936 41.27 89.834 z" style="stroke: none; stroke-width: 1; stroke-dasharray: none; stroke-linecap: butt; stroke-linejoin: miter; stroke-miterlimit: 10; fill: rgb(57,102,212); fill-rule: nonzero; opacity: 1;" transform=" matrix(1 0 0 1 0 0) " stroke-linecap="round" />
	<path d="M 23.403 11.148 h -4.904 V 9.93 h 4.905 L 23.403 11.148 L 23.403 11.148 z M 15.234 16.143 c 0.316 0.49 0.475 1.085 0.475 1.784 c 0 0.722 -0.178 1.371 -0.541 1.943 c -0.231 0.379 -0.517 0.699 -0.861 0.956 c -0.388 0.298 -0.847 0.502 -1.374 0.612 c -0.529 0.11 -1.102 0.165 -1.719 0.165 H 5.727 V 9.424 h 5.882 c 1.483 0.024 2.534 0.454 3.154 1.297 c 0.372 0.517 0.557 1.138 0.557 1.86 c 0 0.745 -0.187 1.34 -0.563 1.793 c -0.209 0.254 -0.518 0.485 -0.927 0.693 C 14.45 15.294 14.92 15.651 15.234 16.143 z M 8.536 14.226 h 2.577 c 0.53 0 0.958 -0.101 1.287 -0.302 c 0.329 -0.201 0.494 -0.558 0.494 -1.071 c 0 -0.567 -0.218 -0.943 -0.654 -1.123 c -0.375 -0.126 -0.855 -0.191 -1.438 -0.191 H 8.536 V 14.226 z M 13.143 17.753 c 0 -0.633 -0.259 -1.07 -0.775 -1.305 c -0.289 -0.133 -0.696 -0.202 -1.218 -0.206 H 8.536 v 3.246 h 2.574 c 0.529 0 0.938 -0.069 1.233 -0.214 C 12.875 19.009 13.143 18.503 13.143 17.753 z M 25.223 15.772 c 0.059 0.398 0.086 0.976 0.075 1.732 h -6.352 c 0.035 0.877 0.338 1.49 0.912 1.841 c 0.346 0.22 0.766 0.328 1.257 0.328 c 0.518 0 0.941 -0.131 1.266 -0.4 c 0.177 -0.143 0.333 -0.344 0.468 -0.598 h 2.328 c -0.061 0.518 -0.341 1.043 -0.845 1.577 c -0.781 0.848 -1.875 1.274 -3.281 1.274 c -1.161 0 -2.185 -0.359 -3.073 -1.073 c -0.885 -0.717 -1.33 -1.881 -1.33 -3.495 c 0 -1.513 0.399 -2.672 1.2 -3.478 c 0.804 -0.808 1.842 -1.21 3.121 -1.21 c 0.758 0 1.442 0.135 2.051 0.408 c 0.608 0.273 1.11 0.702 1.506 1.292 C 24.885 14.487 25.115 15.088 25.223 15.772 z M 22.931 15.999 c -0.043 -0.606 -0.245 -1.065 -0.61 -1.379 c -0.361 -0.314 -0.813 -0.472 -1.352 -0.472 c -0.586 0 -1.039 0.169 -1.361 0.5 c -0.324 0.331 -0.525 0.781 -0.608 1.351 L 22.931 15.999 L 22.931 15.999 z" style="stroke: none; stroke-width: 1; stroke-dasharray: none; stroke-linecap: butt; stroke-linejoin: miter; stroke-miterlimit: 10; fill: rgb(255,255,255); fill-rule: nonzero; opacity: 1;" transform=" matrix(2.81 0 0 2.81 1.4065934065934016 1.4065934065934016) " stroke-linecap="round" />
</g>
</svg>